<svg width="40" height="36" viewBox="0 0 40 36" fill="none" xmlns="http://www.w3.org/2000/svg">
<g clip-path="url(#clip0_105_3)">
<path d="M37.9166 7.20833L33.9375 0.909722C33.5833 0.347222 32.9514 0 32.2778 0H7.49997C6.82636 0 6.19442 0.347222 5.84025 0.909722L1.85414 7.20833C-0.201417 10.4583 1.61803 14.9792 5.45831 15.5C5.73608 15.5347 6.02081 15.5556 6.29858 15.5556C8.11108 15.5556 9.72219 14.7639 10.8264 13.5417C11.9305 14.7639 13.5416 15.5556 15.3541 15.5556C17.1666 15.5556 18.7778 14.7639 19.8819 13.5417C20.9861 14.7639 22.5972 15.5556 24.4097 15.5556C26.2291 15.5556 27.8333 14.7639 28.9375 13.5417C30.0486 14.7639 31.6528 15.5556 33.4653 15.5556C33.75 15.5556 34.0278 15.5347 34.3055 15.5C38.1597 14.9861 39.9861 10.4653 37.9236 7.20833H37.9166ZM34.5903 17.7014H34.5833C34.2153 17.75 33.8403 17.7778 33.4583 17.7778C32.5972 17.7778 31.7708 17.6458 31 17.4097V26.6667H8.77775V17.4028C7.99997 17.6458 7.16664 17.7778 6.30553 17.7778C5.92358 17.7778 5.54164 17.75 5.17358 17.7014H5.16664C4.88192 17.6597 4.60414 17.6111 4.33331 17.5417V26.6667V31.1111C4.33331 33.5625 6.32636 35.5556 8.77775 35.5556H31C33.4514 35.5556 35.4444 33.5625 35.4444 31.1111V26.6667V17.5417C35.1666 17.6111 34.8889 17.6667 34.5903 17.7014Z" fill="white"/>
</g>
<defs>
<clipPath id="clip0_105_3">
<rect width="40" height="35.5556" fill="white"/>
</clipPath>
</defs>
</svg>
